<svg width="80" height="80" viewBox="0 0 80 80" fill="none" xmlns="http://www.w3.org/2000/svg">
<path d="M56.6667 56.6666C58.0556 56.6666 59.2367 56.1811 60.21 55.21C61.1834 54.2388 61.6689 53.0577 61.6667 51.6666C61.6645 50.2755 61.1789 49.0955 60.21 48.1266C59.2411 47.1577 58.06 46.6711 56.6667 46.6666C55.2734 46.6622 54.0934 47.1488 53.1267 48.1266C52.16 49.1044 51.6734 50.2844 51.6667 51.6666C51.66 53.0488 52.1467 54.23 53.1267 55.21C54.1067 56.19 55.2867 56.6755 56.6667 56.6666ZM56.6667 66.6666C58.3889 66.6666 59.9723 66.2633 61.4167 65.4566C62.8611 64.65 64.0278 63.5811 64.9167 62.25C63.6945 61.5277 62.3889 60.9722 61 60.5833C59.6111 60.1944 58.1667 60 56.6667 60C55.1667 60 53.7223 60.1944 52.3334 60.5833C50.9445 60.9722 49.6389 61.5277 48.4167 62.25C49.3056 63.5833 50.4723 64.6533 51.9167 65.46C53.3611 66.2666 54.9445 66.6688 56.6667 66.6666ZM40 7.16663C40.4445 7.16663 40.8478 7.1944 41.21 7.24996C41.5723 7.30551 41.9467 7.41663 42.3334 7.58329L62.3334 15.0833C63.6112 15.5833 64.6534 16.3888 65.46 17.5C66.2667 18.6111 66.6689 19.8611 66.6667 21.25V31.6666C66.6667 32.6111 66.3478 33.4022 65.71 34.04C65.0723 34.6777 64.28 34.9977 63.3334 35C62.3867 35.0022 61.5956 34.6822 60.96 34.04C60.3245 33.3977 60.0045 32.6066 60 31.6666V21.3333L40 13.8333L20 21.3333V37C20 39.7777 20.4034 42.5555 21.21 45.3333C22.0167 48.1111 23.1278 50.75 24.5434 53.25C25.9589 55.75 27.6812 58 29.71 60C31.7389 62 33.9467 63.6389 36.3334 64.9166C37.1667 65.3611 37.7645 66 38.1267 66.8333C38.4889 67.6666 38.5023 68.5 38.1667 69.3333C37.7778 70.2222 37.1534 70.8333 36.2934 71.1666C35.4334 71.5 34.5856 71.4444 33.75 71C27.4723 67.8888 22.5 63.1944 18.8334 56.9166C15.1667 50.6389 13.3334 44 13.3334 37V21.25C13.3334 19.8611 13.7367 18.6111 14.5434 17.5C15.35 16.3888 16.3912 15.5833 17.6667 15.0833L37.6667 7.58329C38.0556 7.41663 38.4445 7.30551 38.8334 7.24996C39.2223 7.1944 39.6112 7.16663 40 7.16663ZM56.6667 73.3333C52.0556 73.3333 48.1256 71.7077 44.8767 68.4566C41.6278 65.2055 40.0023 61.2755 40 56.6666C39.9978 52.0577 41.6234 48.1277 44.8767 44.8766C48.13 41.6255 52.06 40 56.6667 40C61.2734 40 65.2045 41.6255 68.46 44.8766C71.7156 48.1277 73.34 52.0577 73.3334 56.6666C73.3267 61.2755 71.7012 65.2066 68.4567 68.46C65.2123 71.7133 61.2823 73.3377 56.6667 73.3333Z" fill="#30A380"/>
</svg>
